<mxfile host="app.diagrams.net" modified="2022-02-27T00:46:51.105Z" agent="5.0 (X11)" etag="qiSqqwjuBtOqwOK5uoid" version="16.6.4" type="github">
  <diagram id="eWmRiB-rNDPK_l5ceMwG" name="Page-1">
    <mxGraphModel dx="2942" dy="1092" grid="1" gridSize="10" guides="1" tooltips="1" connect="1" arrows="1" fold="1" page="1" pageScale="1" pageWidth="827" pageHeight="1169" math="0" shadow="0">
      <root>
        <mxCell id="0" />
        <mxCell id="1" parent="0" />
        <mxCell id="KFQZDFtkRmgKprlOLvUD-1" value="this is a test" style="text;html=1;align=center;verticalAlign=middle;resizable=0;points=[];autosize=1;strokeColor=none;fillColor=none;" vertex="1" parent="1">
          <mxGeometry x="210" y="170" width="80" height="20" as="geometry" />
        </mxCell>
      </root>
    </mxGraphModel>
  </diagram>
</mxfile>
